<svg xmlns="http://www.w3.org/2000/svg" width="51.5" height="42.844" viewBox="0 0 51.5 42.844">
  <g id="right-arrow" transform="translate(0 -41.346)">
    <g id="Group_1" data-name="Group 1" transform="translate(0 41.346)">
      <path id="Path_1" data-name="Path 1" d="M50.677,60.767l-18.6-18.6a2.827,2.827,0,0,0-3.986,0L26.4,43.857a2.8,2.8,0,0,0-.823,1.993,2.853,2.853,0,0,0,.823,2.016l10.85,10.874H2.782A2.751,2.751,0,0,0,0,61.512V63.9a2.856,2.856,0,0,0,2.782,2.894H37.377L26.4,77.729a2.791,2.791,0,0,0,0,3.958l1.689,1.684a2.827,2.827,0,0,0,3.986,0l18.6-18.6a2.843,2.843,0,0,0,0-4Z" transform="translate(0 -41.346)" fill="#fff"/>
    </g>
  </g>
</svg>
